<svg width="26" height="29" viewBox="0 0 26 29" fill="none" xmlns="http://www.w3.org/2000/svg">
<path d="M15.3067 26.3333C15.0723 26.7374 14.7358 27.0729 14.331 27.306C13.9261 27.5392 13.4672 27.6619 13 27.6619C12.5328 27.6619 12.0739 27.5392 11.669 27.306C11.2642 27.0729 10.9277 26.7374 10.6933 26.3333M21 9C21 6.87827 20.1571 4.84344 18.6569 3.34315C17.1566 1.84285 15.1217 1 13 1C10.8783 1 8.84344 1.84285 7.34315 3.34315C5.84286 4.84344 5 6.87827 5 9C5 18.3333 1 21 1 21H25C25 21 21 18.3333 21 9Z" stroke="#292929" stroke-width="2" stroke-linecap="round" stroke-linejoin="round"/>
</svg>
