<svg width="19" height="19" viewBox="0 0 19 19" fill="none" xmlns="http://www.w3.org/2000/svg">
<path fill-rule="evenodd" clip-rule="evenodd" d="M0 2.2619C0 3.51112 1.01269 4.52381 2.2619 4.52381C3.51112 4.52381 4.52381 3.51112 4.52381 2.2619C4.52381 1.01269 3.51112 0 2.2619 0C1.01269 0 0 1.01269 0 2.2619ZM2.2619 11.7619C1.01269 11.7619 0 10.7492 0 9.5C0 8.25078 1.01269 7.2381 2.2619 7.2381C3.51112 7.2381 4.52381 8.25078 4.52381 9.5C4.52381 10.7492 3.51112 11.7619 2.2619 11.7619ZM2.2619 19C1.01269 19 0 17.9873 0 16.7381C0 15.4889 1.01269 14.4762 2.2619 14.4762C3.51112 14.4762 4.52381 15.4889 4.52381 16.7381C4.52381 17.9873 3.51112 19 2.2619 19ZM9.5 19C8.25078 19 7.2381 17.9873 7.2381 16.7381C7.2381 15.4889 8.25078 14.4762 9.5 14.4762C10.7492 14.4762 11.7619 15.4889 11.7619 16.7381C11.7619 17.9873 10.7492 19 9.5 19ZM14.4762 16.7381C14.4762 17.9873 15.4889 19 16.7381 19C17.9873 19 19 17.9873 19 16.7381C19 15.4889 17.9873 14.4762 16.7381 14.4762C15.4889 14.4762 14.4762 15.4889 14.4762 16.7381ZM9.5 11.7619C8.25078 11.7619 7.2381 10.7492 7.2381 9.5C7.2381 8.25078 8.25078 7.2381 9.5 7.2381C10.7492 7.2381 11.7619 8.25078 11.7619 9.5C11.7619 10.7492 10.7492 11.7619 9.5 11.7619ZM7.2381 2.2619C7.2381 3.51112 8.25078 4.52381 9.5 4.52381C10.7492 4.52381 11.7619 3.51112 11.7619 2.2619C11.7619 1.01269 10.7492 0 9.5 0C8.25078 0 7.2381 1.01269 7.2381 2.2619ZM16.7381 11.7619C15.4889 11.7619 14.4762 10.7492 14.4762 9.5C14.4762 8.25078 15.4889 7.2381 16.7381 7.2381C17.9873 7.2381 19 8.25078 19 9.5C19 10.7492 17.9873 11.7619 16.7381 11.7619ZM14.4762 2.2619C14.4762 3.51112 15.4889 4.52381 16.7381 4.52381C17.9873 4.52381 19 3.51112 19 2.2619C19 1.01269 17.9873 0 16.7381 0C15.4889 0 14.4762 1.01269 14.4762 2.2619Z" fill="#FF671B"/>
</svg>
