<svg width="19" height="18" viewBox="0 0 19 18" fill="none" xmlns="http://www.w3.org/2000/svg">
<path d="M1.5 9.1C1.44477 9.1 1.4 9.05523 1.4 9V1C1.4 0.944772 1.44477 0.9 1.5 0.9H7.5C7.55523 0.9 7.6 0.944772 7.6 1V9C7.6 9.05523 7.55523 9.1 7.5 9.1H1.5ZM1.5 17.1C1.44477 17.1 1.4 17.0552 1.4 17V13C1.4 12.9448 1.44477 12.9 1.5 12.9H7.5C7.55523 12.9 7.6 12.9448 7.6 13V17C7.6 17.0552 7.55523 17.1 7.5 17.1H1.5ZM11.5 17.1C11.4448 17.1 11.4 17.0552 11.4 17V9C11.4 8.94477 11.4448 8.9 11.5 8.9H17.5C17.5552 8.9 17.6 8.94477 17.6 9V17C17.6 17.0552 17.5552 17.1 17.5 17.1H11.5ZM11.4 1C11.4 0.944771 11.4448 0.9 11.5 0.9H17.5C17.5552 0.9 17.6 0.944771 17.6 1V5C17.6 5.05523 17.5552 5.1 17.5 5.1H11.5C11.4448 5.1 11.4 5.05523 11.4 5V1Z" stroke="white" stroke-width="1.8"/>
</svg>
