<svg width="16" height="22" viewBox="0 0 16 22" fill="none" xmlns="http://www.w3.org/2000/svg">
<path d="M1.84828 11.8339L1.84838 11.834L7.42983 20.8285C7.57324 21.0596 7.82589 21.2 8.09762 21.2H8.09764H8.09765H8.09767H8.09769H8.09771H8.09773H8.09775H8.09776H8.09778H8.0978H8.09782H8.09784H8.09785H8.09787H8.09789H8.09791H8.09793H8.09795H8.09796H8.09798H8.098H8.09802H8.09804H8.09806H8.09807H8.09809H8.09811H8.09813H8.09815H8.09817H8.09818H8.0982H8.09822H8.09824H8.09826H8.09827H8.09829H8.09831H8.09833H8.09835H8.09837H8.09838H8.0984H8.09842H8.09844H8.09846H8.09847H8.09849H8.09851H8.09853H8.09855H8.09857H8.09858H8.0986H8.09862H8.09864H8.09866H8.09867H8.09869H8.09871H8.09873H8.09875H8.09876H8.09878H8.0988H8.09882H8.09884H8.09886H8.09887H8.09889H8.09891H8.09893H8.09895H8.09896H8.09898H8.099H8.09902H8.09904H8.09905H8.09907H8.09909H8.09911H8.09913H8.09915H8.09916H8.09918H8.0992H8.09922H8.09924H8.09925H8.09927H8.09929H8.09931H8.09933H8.09934H8.09936H8.09938H8.0994H8.09942H8.09943H8.09945H8.09947H8.09949H8.09951H8.09953H8.09954H8.09956H8.09958H8.0996H8.09962H8.09963H8.09965H8.09967H8.09969H8.09971H8.09972H8.09974H8.09976H8.09978H8.0998H8.09981H8.09983H8.09985H8.09987H8.09989H8.09991H8.09992H8.09994H8.09996H8.09998H8.1H8.10001H8.10003H8.10005H8.10007H8.10009H8.1001H8.10012H8.10014H8.10016H8.10018H8.10019H8.10021H8.10023H8.10025H8.10027H8.10029H8.1003H8.10032H8.10034H8.10036H8.10038H8.10039H8.10041H8.10043H8.10045H8.10047H8.10048H8.1005H8.10052H8.10054H8.10056H8.10057H8.10059H8.10061H8.10063H8.10065H8.10067H8.10068H8.1007H8.10072H8.10074H8.10076H8.10077H8.10079H8.10081H8.10083H8.10085H8.10086H8.10088H8.1009H8.10092H8.10094H8.10096H8.10097H8.10099H8.10101H8.10103H8.10105H8.10106H8.10108H8.1011H8.10112H8.10114H8.10115H8.10117H8.10119H8.10121H8.10123H8.10125H8.10126H8.10128H8.1013H8.10132H8.10134H8.10135H8.10137H8.10139H8.10141H8.10143H8.10145H8.10146H8.10148H8.1015H8.10152H8.10154H8.10155H8.10157H8.10159H8.10161H8.10163H8.10165H8.10166H8.10168H8.1017H8.10172H8.10174H8.10175H8.10177H8.10179H8.10181H8.10183H8.10185H8.10186H8.10188H8.1019H8.10192H8.10194H8.10196H8.10197H8.10199H8.10201H8.10203H8.10205H8.10207H8.10208H8.1021H8.10212H8.10214H8.10216H8.10217H8.10219H8.10221H8.10223H8.10225L8.10227 21.2L8.10383 21.2C8.3779 21.1978 8.6311 21.0531 8.77191 20.8179L14.2111 11.7364L14.2112 11.7362C14.8786 10.6194 15.2312 9.33824 15.2312 8.03125C15.2312 4.04376 11.9875 0.8 8 0.8C4.01251 0.8 0.76875 4.04376 0.76875 8.03125C0.76875 9.3782 1.14189 10.693 1.84828 11.8339ZM12.8621 10.9294L8.08572 18.9043L3.18438 11.0059C2.63196 10.1137 2.33281 9.0851 2.33281 8.03125C2.33281 4.91085 4.8796 2.36406 8 2.36406C11.1202 2.36406 13.6633 4.91067 13.6633 8.03125C13.6633 9.05427 13.3837 10.0566 12.8621 10.9294Z" fill="#FF671B" stroke="#FF671B" stroke-width="0.4"/>
<path d="M8 4.31562C5.95103 4.31562 4.28437 5.98228 4.28437 8.03125C4.28437 10.0664 5.92396 11.7469 8 11.7469C10.1019 11.7469 11.7156 10.0436 11.7156 8.03125C11.7156 5.98228 10.049 4.31562 8 4.31562ZM8 10.1828C6.81155 10.1828 5.84844 9.21657 5.84844 8.03125C5.84844 6.84936 6.81811 5.87969 8 5.87969C9.18145 5.87969 10.1477 6.84893 10.1477 8.03125C10.1477 9.2003 9.20642 10.1828 8 10.1828Z" fill="#FF671B" stroke="#FF671B" stroke-width="0.4"/>
</svg>
