<svg width="44" height="44" viewBox="0 0 44 44" fill="none" xmlns="http://www.w3.org/2000/svg">
<path d="M22 0C38.769 0 44 6.033 44 22C44 37.967 38.769 44 22 44C5.231 44 0 37.967 0 22C0 6.033 5.231 0 22 0Z" fill="#292929"/>
<path d="M14 29C13.7348 29 13.4804 28.8946 13.2929 28.7071C13.1054 28.5196 13 28.2652 13 28C13 27.7348 13.1054 27.4804 13.2929 27.2929C13.4804 27.1054 13.7348 27 14 27H26C26.2652 27 26.5196 27.1054 26.7071 27.2929C26.8946 27.4804 27 27.7348 27 28C27 28.2652 26.8946 28.5196 26.7071 28.7071C26.5196 28.8946 26.2652 29 26 29H14ZM14 23C13.7348 23 13.4804 22.8946 13.2929 22.7071C13.1054 22.5196 13 22.2652 13 22C13 21.7348 13.1054 21.4804 13.2929 21.2929C13.4804 21.1054 13.7348 21 14 21H30C30.2652 21 30.5196 21.1054 30.7071 21.2929C30.8946 21.4804 31 21.7348 31 22C31 22.2652 30.8946 22.5196 30.7071 22.7071C30.5196 22.8946 30.2652 23 30 23H14ZM14 17C13.7348 17 13.4804 16.8946 13.2929 16.7071C13.1054 16.5196 13 16.2652 13 16C13 15.7348 13.1054 15.4804 13.2929 15.2929C13.4804 15.1054 13.7348 15 14 15H22C22.2652 15 22.5196 15.1054 22.7071 15.2929C22.8946 15.4804 23 15.7348 23 16C23 16.2652 22.8946 16.5196 22.7071 16.7071C22.5196 16.8946 22.2652 17 22 17H14Z" fill="white"/>
</svg>
