<svg width="20" height="22" viewBox="0 0 20 22" fill="none" xmlns="http://www.w3.org/2000/svg">
<path d="M1 4.99996L3.99997 1H15.9998L18.9998 4.99996M1 4.99996V18.9998C1 19.5302 1.21071 20.0389 1.58578 20.414C1.96085 20.7891 2.46955 20.9998 2.99998 20.9998H16.9998C17.5303 20.9998 18.039 20.7891 18.414 20.414C18.7891 20.0389 18.9998 19.5302 18.9998 18.9998V4.99996M1 4.99996H18.9998M14.0003 9.00047C14.0003 10.0613 13.5789 11.0787 12.8288 11.8289C12.0786 12.579 11.0612 13.0004 10.0004 13.0004C8.93954 13.0004 7.92213 12.579 7.17199 11.8289C6.42186 11.0787 6.00043 10.0613 6.00043 9.00047" stroke="#292929" stroke-width="2" stroke-linecap="round" stroke-linejoin="round"/>
</svg>
