<svg width="22" height="22" viewBox="0 0 22 22" fill="none" xmlns="http://www.w3.org/2000/svg">
<path d="M11 13.7273C12.5062 13.7273 13.7273 12.5062 13.7273 11C13.7273 9.49377 12.5062 8.27273 11 8.27273C9.49377 8.27273 8.27273 9.49377 8.27273 11C8.27273 12.5062 9.49377 13.7273 11 13.7273Z" stroke="#292929" stroke-width="2" stroke-linecap="round" stroke-linejoin="round"/>
<path d="M17.7273 13.7273C17.6063 14.0015 17.5702 14.3056 17.6236 14.6005C17.6771 14.8954 17.8177 15.1676 18.0273 15.3818L18.0818 15.4364C18.2507 15.6053 18.3847 15.8058 18.4762 16.0266C18.5676 16.2473 18.6146 16.4838 18.6146 16.7227C18.6146 16.9616 18.5676 17.1982 18.4762 17.4189C18.3847 17.6396 18.2507 17.8402 18.0818 18.0091C17.9129 18.178 17.7123 18.312 17.4916 18.4034C17.2709 18.4949 17.0344 18.5419 16.7955 18.5419C16.5566 18.5419 16.32 18.4949 16.0993 18.4034C15.8786 18.312 15.678 18.178 15.5091 18.0091L15.4545 17.9545C15.2421 17.7487 14.9738 17.6097 14.6831 17.5549C14.3924 17.5 14.092 17.5316 13.8191 17.6458C13.5462 17.76 13.3128 17.9517 13.1478 18.1973C12.9828 18.4429 12.8935 18.7314 12.8909 19.0273V19.1818C12.8909 19.664 12.6994 20.1265 12.3584 20.4675C12.0174 20.8084 11.5549 21 11.0727 21C10.5905 21 10.1281 20.8084 9.78708 20.4675C9.4461 20.1265 9.25455 19.664 9.25455 19.1818V19.1C9.24751 18.7991 9.15011 18.5073 8.97501 18.2625C8.79991 18.0176 8.55521 17.8312 8.27273 17.7273C7.99853 17.6063 7.69437 17.5702 7.39947 17.6236C7.10456 17.6771 6.83244 17.8177 6.61818 18.0273L6.56364 18.0818C6.22247 18.423 5.75975 18.6146 5.27727 18.6146C4.79479 18.6146 4.33207 18.423 3.99091 18.0818C3.64974 17.7407 3.45808 17.2779 3.45808 16.7955C3.45808 16.313 3.64974 15.8503 3.99091 15.5091L4.04545 15.4545C4.25129 15.2421 4.39026 14.9738 4.44514 14.6831C4.50002 14.3924 4.46841 14.092 4.35421 13.8191C4.24001 13.5462 4.04826 13.3128 3.80269 13.1478C3.55713 12.9828 3.26856 12.8935 2.97273 12.8909H2.81818C2.33597 12.8909 1.87351 12.6994 1.53253 12.3584C1.19156 12.0174 1 11.5549 1 11.0727C1 10.5905 1.19156 10.1281 1.53253 9.78708C1.87351 9.4461 2.33597 9.25455 2.81818 9.25455H2.9C3.2009 9.24751 3.49273 9.15011 3.73754 8.97501C3.98236 8.79991 4.16883 8.55521 4.27273 8.27273C4.39374 7.99853 4.42984 7.69437 4.37637 7.39947C4.3229 7.10456 4.18231 6.83244 3.97273 6.61818L3.91818 6.56364C3.74925 6.39471 3.61525 6.19416 3.52383 5.97345C3.43241 5.75273 3.38535 5.51617 3.38535 5.27727C3.38535 5.03837 3.43241 4.80181 3.52383 4.5811C3.61525 4.36038 3.74925 4.15984 3.91818 3.99091C4.08711 3.82198 4.28766 3.68798 4.50837 3.59656C4.72909 3.50513 4.96565 3.45808 5.20455 3.45808C5.44345 3.45808 5.68001 3.50513 5.90072 3.59656C6.12144 3.68798 6.32198 3.82198 6.49091 3.99091L6.54545 4.04545C6.75971 4.25503 7.03183 4.39562 7.32674 4.4491C7.62164 4.50257 7.9258 4.46647 8.2 4.34545H8.27273C8.54161 4.23022 8.77093 4.03887 8.93245 3.79497C9.09397 3.55107 9.18065 3.26526 9.18182 2.97273V2.81818C9.18182 2.33597 9.37338 1.87351 9.71435 1.53253C10.0553 1.19156 10.5178 1 11 1C11.4822 1 11.9447 1.19156 12.2856 1.53253C12.6266 1.87351 12.8182 2.33597 12.8182 2.81818V2.9C12.8208 3.19583 12.9101 3.4844 13.0751 3.72997C13.24 3.97553 13.4735 4.16729 13.7464 4.28148C14.0193 4.39568 14.3197 4.4273 14.6104 4.37242C14.9011 4.31753 15.1693 4.17856 15.3818 3.97273L15.4364 3.91818C15.7775 3.57702 16.2402 3.38535 16.7227 3.38535C16.9616 3.38535 17.1982 3.43241 17.4189 3.52383C17.6396 3.61525 17.8402 3.74925 18.0091 3.91818C18.178 4.08711 18.312 4.28766 18.4034 4.50837C18.4949 4.72909 18.5419 4.96565 18.5419 5.20455C18.5419 5.44345 18.4949 5.68001 18.4034 5.90072C18.312 6.12144 18.178 6.32198 18.0091 6.49091L17.9545 6.54545C17.745 6.75971 17.6044 7.03183 17.5509 7.32674C17.4974 7.62164 17.5335 7.9258 17.6545 8.2V8.27273C17.7698 8.54161 17.9611 8.77093 18.205 8.93245C18.4489 9.09397 18.7347 9.18065 19.0273 9.18182H19.1818C19.664 9.18182 20.1265 9.37338 20.4675 9.71435C20.8084 10.0553 21 10.5178 21 11C21 11.4822 20.8084 11.9447 20.4675 12.2856C20.1265 12.6266 19.664 12.8182 19.1818 12.8182H19.1C18.8075 12.8193 18.5217 12.906 18.2778 13.0676C18.0339 13.2291 17.8425 13.4584 17.7273 13.7273Z" stroke="#292929" stroke-width="2" stroke-linecap="round" stroke-linejoin="round"/>
</svg>
